<svg width="22" height="22" viewBox="0 0 22 22" fill="none" xmlns="http://www.w3.org/2000/svg">
<path d="M10.5941 11.3194C10.6201 11.3194 10.6461 11.3194 10.6773 11.3194C10.6877 11.3194 10.6981 11.3194 10.7085 11.3194C10.7242 11.3194 10.745 11.3194 10.7606 11.3194C12.2849 11.2977 13.5179 10.8496 14.4283 9.99259C16.4313 8.10457 16.0983 4.86796 16.0619 4.55909C15.9319 2.24039 14.6208 1.13107 13.5387 0.61339C12.7323 0.226215 11.7907 0.0174011 10.7398 0H10.7033C10.6981 0 10.6877 0 10.6825 0H10.6513C10.0738 0 8.9397 0.0783051 7.85237 0.595988C6.75985 1.11367 5.42801 2.22299 5.29795 4.55909C5.26153 4.86796 4.92857 8.10457 6.93153 9.99259C7.83677 10.8496 9.06976 11.2977 10.5941 11.3194ZM6.68701 4.66785C6.68701 4.6548 6.69222 4.64175 6.69222 4.63305C6.8639 1.5139 9.51197 1.17893 10.6461 1.17893H10.6669C10.6773 1.17893 10.6929 1.17893 10.7085 1.17893C12.1132 1.20503 14.5012 1.68356 14.6624 4.63305C14.6624 4.6461 14.6624 4.65915 14.6676 4.66785C14.6728 4.6983 15.037 7.65649 13.3826 9.21389C12.7271 9.83163 11.8531 10.1362 10.7033 10.1449C10.6929 10.1449 10.6877 10.1449 10.6773 10.1449C10.6669 10.1449 10.6617 10.1449 10.6513 10.1449C9.50677 10.1362 8.62755 9.83163 7.97723 9.21389C6.32804 7.66519 6.68181 4.69395 6.68701 4.66785Z" fill="white"/>
<path d="M21.3682 16.6877C21.3682 16.6833 21.3682 16.679 21.3682 16.6746C21.3682 16.6398 21.363 16.605 21.363 16.5659C21.3318 15.7045 21.2641 13.6903 19.0062 13.0465C18.9906 13.0421 18.9698 13.0378 18.9542 13.0334C16.6079 12.5331 14.6569 11.4021 14.6361 11.389C14.3188 11.202 13.8817 11.2672 13.658 11.5326C13.4343 11.7979 13.5124 12.1634 13.8297 12.3504C13.9182 12.4026 15.9888 13.6077 18.5796 14.1645C19.7918 14.5256 19.9271 15.6088 19.9635 16.6007C19.9635 16.6398 19.9635 16.6746 19.9687 16.7094C19.9739 17.1009 19.9427 17.7056 19.8594 18.0536C19.0166 18.4539 15.713 19.8373 10.6874 19.8373C5.68257 19.8373 2.35816 18.4495 1.51015 18.0493C1.42691 17.7013 1.39049 17.0966 1.40089 16.7051C1.40089 16.6703 1.4061 16.6355 1.4061 16.5963C1.44251 15.6044 1.57778 14.5212 2.78997 14.1601C5.38082 13.6033 7.45143 12.3939 7.53987 12.3461C7.85722 12.159 7.93526 11.7936 7.71155 11.5282C7.48784 11.2629 7.05083 11.1976 6.73348 11.3847C6.71267 11.3977 4.77213 12.5288 2.41539 13.0291C2.39458 13.0334 2.37897 13.0378 2.36336 13.0421C0.105466 13.6903 0.0378337 15.7045 0.00661858 16.5615C0.00661858 16.6007 0.00661846 16.6355 0.00141594 16.6703C0.00141594 16.6746 0.00141594 16.679 0.00141594 16.6833C-0.00378658 16.9095 -0.00898899 18.071 0.266745 18.654C0.31877 18.7671 0.412415 18.8628 0.537276 18.9281C0.693352 19.0151 4.43396 21.0075 10.6926 21.0075C16.9512 21.0075 20.6918 19.0107 20.8479 18.9281C20.9676 18.8628 21.0664 18.7671 21.1185 18.654C21.3786 18.0754 21.3734 16.9139 21.3682 16.6877Z" fill="white"/>
</svg>
