<svg width="32" height="26" viewBox="0 0 32 26" fill="none" xmlns="http://www.w3.org/2000/svg">
<path d="M7.13008 5.76104H29.6081C30.292 5.76104 30.7741 6.43205 30.5559 7.08013L28.8908 12.0254C28.4798 13.246 27.3356 14.0681 26.0476 14.0681H9.02537M0 1H4.7347C5.68116 1 6.49804 1.66342 6.69218 2.58976L9.58181 16.3776C9.77595 17.3039 10.5928 17.9673 11.5393 17.9673H28.203" stroke="black" stroke-width="1.5"/>
<path d="M15.7687 22.8457C15.7687 23.5582 14.9604 24.4197 13.5693 24.4197C12.1782 24.4197 11.3699 23.5582 11.3699 22.8457C11.3699 22.1331 12.1782 21.2717 13.5693 21.2717C14.9604 21.2717 15.7687 22.1331 15.7687 22.8457Z" stroke="black" stroke-width="1.5"/>
<path d="M28.746 22.8457C28.746 23.5582 27.9377 24.4197 26.5466 24.4197C25.1555 24.4197 24.3472 23.5582 24.3472 22.8457C24.3472 22.1331 25.1555 21.2717 26.5466 21.2717C27.9377 21.2717 28.746 22.1331 28.746 22.8457Z" stroke="black" stroke-width="1.5"/>
</svg>
