<svg width="28" height="21" viewBox="0 0 28 21" fill="none" xmlns="http://www.w3.org/2000/svg">
<path d="M20.1004 0C17.7169 0 15.4856 0.815162 14 2.18095C12.5144 0.815115 10.2832 0 7.89957 0C3.54375 0 0 2.67669 0 5.96686C0 8.54319 2.03385 11.5231 6.04492 14.8239C9.13175 17.364 12.4897 19.3308 13.4454 19.8731L13.9998 20.1877L14.5543 19.8731C15.5099 19.3308 18.868 17.3641 21.9549 14.824C25.9661 11.5232 28 8.54324 28 5.96686C28 2.67669 24.4562 0 20.1004 0ZM20.5948 13.8809C18.0558 15.9702 15.3242 17.6592 13.9998 18.4376C12.6755 17.6592 9.944 15.9702 7.40498 13.8809C3.76837 10.8883 1.84615 8.15167 1.84615 5.96686C1.84615 3.44565 4.56172 1.39447 7.89957 1.39447C10.0961 1.39447 12.1243 2.29874 13.1927 3.75443L14 4.85448L14.8073 3.75443C15.8756 2.29879 17.9038 1.39447 20.1004 1.39447C23.4383 1.39447 26.1538 3.4456 26.1538 5.96686C26.1538 8.15176 24.2316 10.8884 20.5948 13.8809Z" fill="black"/>
</svg>
