<svg width="17" height="19" viewBox="0 0 17 19" fill="none" xmlns="http://www.w3.org/2000/svg">
<path d="M8.5 0C3.8131 0 0 2.92446 0 6.51908C0 7.73358 0.438647 8.91882 1.26881 9.9471L8.01616 18.2863C8.14541 18.4461 8.37311 18.5432 8.61801 18.5432C8.6199 18.5432 8.62174 18.5432 8.62363 18.5432C8.87065 18.5417 9.09883 18.4416 9.22571 18.2791L15.8011 9.85902C16.5854 8.85247 17 7.69755 17 6.51908C17 2.92446 13.1869 0 8.5 0ZM14.5853 9.3012L8.60729 16.9563L2.47289 9.37465C1.78188 8.51877 1.40722 7.53135 1.40722 6.51908C1.40722 3.52356 4.59425 1.07927 8.5 1.07927C12.4058 1.07927 15.5881 3.52356 15.5881 6.51908C15.5881 7.50132 15.2381 8.4635 14.5853 9.3012Z" fill="black"/>
<path d="M8.49647 2.74713C5.89259 2.74713 3.77417 4.28759 3.77417 6.18105C3.77417 8.06241 5.85812 9.61497 8.49647 9.61497C11.1673 9.61497 13.2188 8.04174 13.2188 6.18105C13.2188 4.28759 11.1003 2.74713 8.49647 2.74713ZM8.49647 8.47796C6.75147 8.47796 5.33777 7.44652 5.33777 6.18105C5.33777 4.91874 6.76055 3.88414 8.49647 3.88414C10.2324 3.88414 11.6499 4.91874 11.6499 6.18105C11.6499 7.42806 10.2691 8.47796 8.49647 8.47796Z" fill="black"/>
</svg>
