<svg width="190" height="33" viewBox="0 0 190 33" fill="none" xmlns="http://www.w3.org/2000/svg">
<path fill-rule="evenodd" clip-rule="evenodd" d="M1.52161 0.260328V7.59645H1.96661C2.00098 7.17592 2.08661 6.75089 2.22943 6.32609C2.36627 5.89679 2.54315 5.48506 2.76593 5.09041C2.98285 4.70002 3.23407 4.34476 3.51935 4.02367C3.79938 3.70733 4.10748 3.45126 4.43341 3.25168C4.6731 3.10027 4.9812 2.95694 5.36371 2.81835C5.74622 2.67952 6.20306 2.56679 6.73395 2.48017C7.27081 2.38905 7.88177 2.34562 8.578 2.34135H15.8403L0.562256 18.3145L0.630676 18.4707H22.7261V10.0417H22.2808C22.2464 10.519 22.1833 11.0043 22.092 11.4943C21.9952 11.9844 21.8639 12.4614 21.6927 12.9251C21.5155 13.3891 21.2927 13.8184 21.0189 14.2173C20.7449 14.612 20.4136 14.9544 20.0196 15.2449C19.523 15.5961 18.9977 15.8519 18.4496 16.0169C17.8959 16.1816 17.3478 16.2855 16.7937 16.3289C16.2459 16.3766 15.7206 16.3937 15.2238 16.3895H7.68738L22.8973 0.416252L22.7261 0.260328H1.52161ZM29.6115 15.5572C29.6171 15.7693 29.6059 15.9863 29.5718 16.2117C29.5431 16.4371 29.4631 16.6626 29.3434 16.8795C29.2234 17.0964 29.0234 17.3 28.7553 17.4823C28.4981 17.6425 28.2131 17.7685 27.8872 17.8508C27.5679 17.9377 27.2366 17.9982 26.8941 18.0329C26.5513 18.0675 26.226 18.0934 25.9119 18.1067L25.3298 18.1325V18.4707H48.6923H49.3773H60.9904V18.1325L60.1339 18.0806C59.7974 18.0632 59.4373 18.0198 59.0549 17.9505C58.6724 17.8812 58.3127 17.7728 57.9699 17.6297C57.6277 17.4866 57.3421 17.3 57.1196 17.0658C56.9365 16.871 56.8112 16.6412 56.7371 16.3723C56.6683 16.1077 56.6452 15.8344 56.6799 15.5529C56.7081 15.2755 56.788 15.0152 56.914 14.7767L58.2158 12.3572H66.9853L68.5268 15.219C68.618 15.3792 68.6924 15.5529 68.7609 15.7435C68.8293 15.9385 68.8633 16.1253 68.8693 16.3116C68.8633 16.6975 68.7665 17.0053 68.5724 17.2307C68.384 17.4604 68.1384 17.6297 67.8419 17.7424C67.6871 17.8117 67.499 17.8679 67.2822 17.9114C67.065 17.9548 66.8028 17.9939 66.4828 18.0241C66.1631 18.0547 65.769 18.0805 65.3069 18.1067L64.7928 18.1325V18.4707H78.2216V18.1325L77.6732 18.1067C77.2678 18.0891 76.8679 18.0371 76.4741 17.9505C76.0804 17.8679 75.7204 17.7595 75.3895 17.6297C75.0526 17.4996 74.7782 17.352 74.5557 17.1963C74.356 17.0444 74.1617 16.8449 73.9792 16.6021C73.7907 16.355 73.5851 16.0297 73.3511 15.6222C73.1226 15.219 72.837 14.7031 72.5004 14.0742L64.93 0H62.0179L54.55 13.6841C54.299 14.1305 54.0706 14.5121 53.865 14.8244C53.6594 15.1364 53.4825 15.3968 53.3284 15.6046C53.1907 15.7866 53.0713 15.9376 52.9743 16.0602L52.9403 16.1032C52.8316 16.2423 52.6775 16.4113 52.4891 16.6021C52.3007 16.7927 52.061 16.9879 51.7697 17.1873C51.4841 17.3826 51.1419 17.5604 50.7363 17.7165C50.3452 17.8691 49.8939 17.9803 49.3773 18.0502V10.5619H48.9319L48.8295 11.3688C48.778 11.7979 48.6979 12.2229 48.5955 12.6562C48.4867 13.0855 48.3154 13.5018 48.0701 13.905C47.8301 14.3127 47.4764 14.6855 47.0139 15.0368C46.8711 15.1495 46.6599 15.284 46.3858 15.4354C46.1115 15.5873 45.7636 15.7349 45.3352 15.8778C44.9071 16.0254 44.393 16.1467 43.7937 16.2423C43.194 16.3375 42.4977 16.3852 41.704 16.3895H33.8593V3.17383C33.8536 3.02195 33.8649 2.8314 33.8995 2.60595C33.928 2.3805 34.0076 2.14628 34.1276 1.9035C34.2536 1.66049 34.4473 1.44407 34.7158 1.24875C34.9614 1.08406 35.2467 0.96254 35.572 0.88043C35.9036 0.793571 36.2401 0.732832 36.5885 0.697947C36.931 0.663536 37.2567 0.637419 37.5591 0.624365L38.1416 0.598501V0.260328H25.3298V0.598501L25.9119 0.624365C26.2148 0.637419 26.54 0.663536 26.8885 0.697947C27.2307 0.732832 27.5679 0.793571 27.8988 0.88043C28.2244 0.96254 28.51 1.08406 28.7553 1.24875C29.0234 1.44407 29.2234 1.66049 29.3434 1.9035C29.4631 2.14628 29.5431 2.3805 29.5718 2.60595C29.6059 2.8314 29.6171 3.02195 29.6115 3.17383V15.5572ZM66.129 10.5361H59.072L62.5663 4.1364H62.6348L66.129 10.5361ZM88.567 2.34135H91.1019C91.3016 2.33708 91.5531 2.34562 91.8556 2.36319C92.1581 2.38051 92.4834 2.41516 92.8375 2.47591C93.1915 2.53215 93.5452 2.62305 93.8993 2.74479C94.259 2.87057 94.5902 3.03952 94.9043 3.25168C95.1899 3.45126 95.4467 3.71586 95.6808 4.04977C95.9089 4.38343 96.1149 4.75222 96.2858 5.15541C96.463 5.56288 96.6055 5.97511 96.7142 6.39112C96.8223 6.80737 96.8911 7.20179 96.9255 7.57058H97.3708V0.260328H75.5154V7.57058H75.9607C75.9948 7.20179 76.0688 6.80737 76.1776 6.39112C76.2804 5.97511 76.4229 5.56288 76.5997 5.15541C76.7713 4.75222 76.9766 4.38343 77.2109 4.04977C77.4394 3.71586 77.6963 3.45126 77.9816 3.25168C78.2956 3.03952 78.6269 2.87057 78.9863 2.74479C79.3406 2.62305 79.6946 2.53215 80.0487 2.47591C80.4025 2.41516 80.7281 2.38051 81.0306 2.36319C81.3331 2.34562 81.5843 2.33708 81.7843 2.34135H84.3192V15.5572C84.3249 15.7088 84.3136 15.8996 84.2789 16.1253C84.2505 16.3507 84.1708 16.5848 84.0508 16.8275C83.9311 17.0658 83.7311 17.287 83.4627 17.4823C83.2171 17.6425 82.9318 17.7685 82.6064 17.8508C82.2749 17.9377 81.9384 17.9939 81.5956 18.0329C81.2474 18.0675 80.9218 18.0891 80.6193 18.1067L80.0369 18.1325V18.4707H92.8487V18.1325L92.2665 18.1067C91.9637 18.0891 91.6384 18.0675 91.296 18.0329C90.9478 17.9939 90.6106 17.9377 90.2797 17.8508C89.9541 17.7685 89.6691 17.6425 89.4232 17.4823C89.155 17.287 88.9607 17.0658 88.8351 16.8275C88.7154 16.5848 88.6354 16.3507 88.6066 16.1253C88.5726 15.8996 88.5613 15.7088 88.567 15.5572V2.34135ZM132.21 0.260328H121.933L115.527 12.6176H115.424L109.018 0.260328H98.3301V0.598501L98.9126 0.624365C99.2151 0.637419 99.5404 0.663536 99.8889 0.697947C100.231 0.732832 100.568 0.793571 100.899 0.88043C101.225 0.96254 101.51 1.08406 101.756 1.24875C102.024 1.44407 102.224 1.66049 102.344 1.9035C102.463 2.14628 102.543 2.3805 102.572 2.60595C102.606 2.8314 102.618 3.02195 102.612 3.17383V15.0368C102.618 15.2363 102.601 15.4789 102.567 15.7651C102.532 16.0513 102.452 16.3417 102.327 16.6324C102.207 16.9229 102.013 17.17 101.756 17.3783C101.533 17.543 101.248 17.6773 100.911 17.7815C100.574 17.8855 100.225 17.9636 99.8716 18.0155C99.512 18.0675 99.1923 18.0979 98.9126 18.1067L98.3301 18.1325V18.4707H109.875V18.1325L109.292 18.1067C109.012 18.0979 108.693 18.0675 108.333 18.0155C107.979 17.9636 107.631 17.8855 107.294 17.7815C106.957 17.6773 106.672 17.543 106.449 17.3783C106.243 17.2177 106.083 17.0314 105.969 16.8145C105.849 16.5978 105.764 16.3766 105.712 16.1467C105.661 15.9212 105.627 15.7088 105.61 15.5138C105.598 15.3142 105.592 15.1583 105.592 15.0368V2.7837H105.695L113.848 18.4707H115.424L123.577 2.7837H123.68V15.5572C123.685 15.7088 123.674 15.8996 123.64 16.1253C123.611 16.3507 123.537 16.5848 123.411 16.8275C123.291 17.0658 123.092 17.287 122.823 17.4823C122.578 17.6425 122.292 17.7685 121.967 17.8508C121.636 17.9377 121.299 17.9939 120.956 18.0329C120.608 18.0675 120.283 18.0891 119.98 18.1067L119.398 18.1325V18.4707H131.456H132.21H143.754V18.1325L142.897 18.0806C142.561 18.0632 142.201 18.0198 141.818 17.9505C141.436 17.8812 141.076 17.7728 140.733 17.6297C140.391 17.4866 140.106 17.3 139.883 17.0658C139.7 16.871 139.575 16.6412 139.501 16.3723C139.432 16.1077 139.409 15.8344 139.443 15.5529C139.472 15.2755 139.552 15.0152 139.678 14.7767L140.979 12.3572H149.749L151.29 15.219C151.382 15.3792 151.456 15.5529 151.524 15.7435C151.593 15.9385 151.627 16.1253 151.633 16.3116C151.627 16.6975 151.53 17.0053 151.336 17.2307C151.148 17.4604 150.902 17.6297 150.605 17.7424C150.451 17.8117 150.263 17.8679 150.046 17.9114C149.829 17.9548 149.566 17.9939 149.246 18.0241C148.927 18.0547 148.533 18.0805 148.07 18.1067L147.556 18.1325V18.4707H159.272H160.985H172.735V18.1325L171.913 18.0806C171.268 18.0371 170.771 17.9806 170.417 17.9158C170.069 17.8463 169.835 17.7986 169.72 17.7685C169.475 17.6989 169.246 17.6123 169.03 17.4953C168.813 17.3826 168.63 17.2393 168.493 17.0573C168.356 16.8795 168.287 16.6583 168.282 16.3895C168.287 16.1858 168.362 15.9734 168.499 15.748C168.636 15.5225 168.79 15.3142 168.967 15.1236C169.144 14.9328 169.292 14.7809 169.412 14.6725L173.763 10.8223L178.456 14.7505C178.701 14.9501 178.93 15.1582 179.147 15.3706C179.363 15.5873 179.546 15.8042 179.683 16.0297C179.82 16.2509 179.889 16.4763 179.894 16.7017C179.889 16.9576 179.797 17.17 179.615 17.3392C179.437 17.5039 179.198 17.6382 178.901 17.7424C178.587 17.8594 178.222 17.9462 177.817 18.0027C177.411 18.059 177.006 18.0934 176.606 18.1067L175.613 18.1325V18.4707H190V18.1325C189.623 18.0979 189.212 18.0241 188.773 17.9114C188.327 17.7986 187.859 17.6209 187.362 17.3783C186.74 17.0487 186.135 16.6541 185.558 16.1858C184.982 15.7216 184.37 15.21 183.731 14.6466L176.434 8.45481L181.059 4.39672C181.39 4.10625 181.739 3.79823 182.104 3.4686C182.475 3.13897 182.869 2.81834 183.291 2.50604C183.709 2.19397 184.165 1.91227 184.656 1.66475C184.959 1.51762 185.29 1.37429 185.661 1.2402C186.032 1.10588 186.42 0.993155 186.825 0.893246C187.225 0.793573 187.619 0.719776 188.013 0.676348L188.698 0.598501V0.260328H174.927V0.598501L175.784 0.650484C176.412 0.689404 176.926 0.758678 177.325 0.854078C177.725 0.949717 178.033 1.06672 178.25 1.19677C178.502 1.33987 178.684 1.49603 178.787 1.6695C178.89 1.84725 178.941 2.0421 178.936 2.26328C178.93 2.52361 178.884 2.75331 178.787 2.9612C178.695 3.16529 178.581 3.34306 178.444 3.49921C178.307 3.65537 178.176 3.78967 178.045 3.9024L174.619 6.94622L169.755 2.83566C169.572 2.67951 169.441 2.54094 169.372 2.41943C169.304 2.29816 169.269 2.18544 169.275 2.08126C169.269 1.88168 169.332 1.68684 169.475 1.49603C169.612 1.305 169.863 1.13603 170.234 0.988659C170.411 0.927668 170.617 0.871414 170.856 0.823952C171.096 0.776251 171.342 0.737101 171.587 0.706963C171.833 0.680859 172.055 0.659266 172.255 0.650484L173.043 0.598501V0.260328H159.752V0.598501L160.403 0.702675C160.82 0.776243 161.248 0.914848 161.687 1.11443C162.127 1.31378 162.549 1.54348 162.954 1.80809C163.36 2.0727 163.72 2.33708 164.034 2.60145L171.947 9.28755L165.267 15.1929C165.153 15.3014 164.987 15.4312 164.782 15.5873C164.576 15.7435 164.348 15.9084 164.108 16.0774C163.863 16.2466 163.634 16.4027 163.412 16.5456C163.195 16.6889 163.012 16.8017 162.869 16.8838C162.332 17.183 161.75 17.4431 161.122 17.6558C160.659 17.8138 160.198 17.9432 159.741 18.0419C159.572 18.0176 159.404 17.9872 159.238 17.9505C158.844 17.8679 158.484 17.7595 158.153 17.6297C157.816 17.4996 157.542 17.352 157.319 17.1963C157.12 17.0444 156.926 16.8449 156.743 16.6021C156.554 16.355 156.349 16.0297 156.115 15.6222C155.886 15.219 155.601 14.7031 155.264 14.0742L147.694 0H144.781L137.314 13.6841C137.063 14.1305 136.834 14.5121 136.629 14.8244C136.423 15.1364 136.246 15.3968 136.092 15.6046C135.958 15.7825 135.84 15.9307 135.745 16.0518L135.704 16.1032C135.595 16.2423 135.441 16.4113 135.253 16.6021C135.064 16.7927 134.825 16.9879 134.533 17.1873C134.248 17.3826 133.905 17.5604 133.5 17.7165C133.1 17.8724 132.638 17.9852 132.107 18.0547L131.66 18.1081L131.627 18.1067C131.325 18.0891 130.999 18.0675 130.656 18.0329C130.308 17.9939 129.972 17.9377 129.646 17.8508C129.315 17.7685 129.029 17.6425 128.784 17.4823C128.515 17.287 128.322 17.0658 128.196 16.8275C128.076 16.5848 127.996 16.3507 127.967 16.1253C127.939 15.8996 127.922 15.7088 127.928 15.5572V3.17383C127.922 3.02195 127.939 2.8314 127.967 2.60595C127.996 2.3805 128.076 2.14628 128.196 1.9035C128.322 1.66049 128.515 1.44407 128.784 1.24875C129.029 1.08406 129.315 0.96254 129.646 0.88043C129.972 0.793571 130.308 0.732832 130.656 0.697947C130.999 0.663536 131.325 0.637419 131.627 0.624365L132.21 0.598501V0.260328ZM148.893 10.5361H141.836L145.33 4.1364H145.398L148.893 10.5361ZM95.9175 29.1269C95.9175 29.1269 97.0437 28.7123 99.019 28.1544C100.037 28.5241 102.267 29.2942 104.427 29.7681C106.997 30.3319 108.814 30.3237 111.07 30.3135H111.071C111.38 30.3121 111.698 30.3106 112.028 30.3106C114.756 30.3106 118.654 29.9653 118.654 29.9653C118.654 29.9653 118.069 28.3376 118.004 27.1536C117.939 25.9694 117.939 25.7722 117.939 25.7722C117.939 25.7722 117.354 27.4496 117.484 28.3376C117.614 29.2254 117.614 29.5215 117.614 29.5215C117.614 29.5215 112.482 29.9162 108.845 29.62C105.207 29.3241 102.998 29.0279 101.439 28.6335C100.58 28.4159 99.7609 28.2287 99.1981 28.1041C101.954 27.3335 106.267 26.3126 111.443 25.7231C116.9 25.1014 118.427 24.977 118.776 24.977C118.732 25.0106 118.718 25.0323 118.718 25.0323C118.718 25.0323 119.009 24.977 118.776 24.977C118.895 24.8866 119.229 24.7097 120.082 24.6378C121.252 24.5391 133.204 24.0951 136.907 24.2923C137.405 24.3188 138.021 24.3489 138.717 24.383L138.719 24.3831C143.199 24.6021 151.01 24.9841 152.302 25.6244C153.796 26.3643 154.381 27.1042 153.926 28.9294C153.472 30.7549 152.562 32.5309 151.718 32.136C151.584 32.0735 151.399 31.9787 151.173 31.8623C149.97 31.2443 147.583 30.0173 145.287 29.7681C142.559 29.4722 139.57 29.5216 138.336 29.7681C137.908 29.8537 137.378 30.0283 136.828 30.2095C135.793 30.5509 134.685 30.9159 134.049 30.7549C133.767 30.6837 133.405 30.5177 132.993 30.3297C131.981 29.8667 130.675 29.2694 129.567 29.6203C128.126 30.0762 127.961 30.2371 127.38 30.8039L127.311 30.8714C127.284 30.8974 127.257 30.9243 127.228 30.9521C126.514 31.6429 125.539 32.4322 124.76 31.6923C123.98 30.9521 122.551 30.6068 121.317 30.5574C120.083 30.5083 118.978 30.8042 118.654 31.0508C118.328 31.2976 117.874 31.7907 117.874 31.7907C117.874 31.7907 115.86 31.3963 113.521 31.5936C111.183 31.7908 107.156 31.9388 104.427 31.5442C101.699 31.1495 95.9175 29.1269 95.9175 29.1269ZM120.472 29.7188C120.472 29.7188 123.071 29.3735 124.045 29.916C124.173 29.9873 124.288 30.057 124.395 30.1217C125.098 30.549 125.445 30.76 126.968 29.8175C127.054 29.7645 127.138 29.7122 127.221 29.6607C128.832 28.6587 129.922 27.9812 131.775 28.732C131.918 28.7899 132.055 28.8462 132.188 28.9005L132.189 28.9011C133.863 29.5875 134.772 29.9602 136.517 29.2747C138.401 28.5348 142.494 27.7455 145.937 28.8307C147.076 29.1899 148.13 29.6193 149.049 29.9938C150.907 30.7509 152.215 31.2835 152.562 30.5574C153.082 29.472 153.342 28.288 150.679 27.8442C148.015 27.4002 144.053 26.9068 140.415 27.3508C138.551 27.5783 137.472 28.0258 136.662 28.3617C135.89 28.6816 135.362 28.9004 134.634 28.732C134.213 28.6348 133.783 28.483 133.34 28.327C132.21 27.9287 131.004 27.5035 129.697 27.8933C129.025 28.0939 128.388 28.4493 127.777 28.7904C126.734 29.3725 125.767 29.9129 124.825 29.5707C124.628 29.4993 124.439 29.4287 124.257 29.3608L124.253 29.3592C123.057 28.912 122.171 28.5806 121.382 28.8801C120.472 29.2254 120.472 29.7188 120.472 29.7188ZM0.97937 26.8514C0.801514 26.911 0.639038 26.9748 0.492188 27.0448L0.222778 26.4746C0.492188 26.3376 0.799683 26.2297 1.14343 26.1461C1.48932 26.065 1.87872 26.0215 2.31055 26.0204C2.77209 26.0215 3.17462 26.0797 3.52307 26.1952C3.87085 26.311 4.14081 26.4791 4.33643 26.6972C4.53174 26.9153 4.62958 27.1799 4.63367 27.4903C4.62958 27.7383 4.55707 27.9625 4.41425 28.164C4.27209 28.3662 4.07648 28.5354 3.83148 28.6721C3.5874 28.8085 3.31177 28.9051 3.00305 28.9604V28.9778C3.37463 29.0093 3.7027 29.0881 3.99243 29.2158C4.28113 29.3435 4.508 29.5158 4.67615 29.7296C4.84424 29.9432 4.93085 30.1938 4.93829 30.4838C4.93646 30.7329 4.88361 30.9529 4.77802 31.1445C4.67267 31.336 4.52771 31.499 4.34241 31.6371C4.15643 31.774 3.94336 31.8868 3.69928 31.9743C3.45618 32.0617 3.19647 32.1255 2.91681 32.167C2.63928 32.209 2.3559 32.2297 2.06464 32.2297C1.70465 32.2313 1.34656 32.1998 0.993103 32.1378C0.639038 32.0752 0.308411 31.9743 0 31.8379L0.269348 31.2318C0.41626 31.2956 0.585938 31.3552 0.779968 31.4102C0.971252 31.4648 1.17688 31.5094 1.39557 31.5436C1.61279 31.5778 1.83215 31.5956 2.05243 31.5975C2.44183 31.5956 2.76807 31.5453 3.03839 31.4487C3.30585 31.3507 3.50928 31.2171 3.65021 31.0448C3.78894 30.8741 3.85925 30.6779 3.85925 30.4569C3.85742 30.2773 3.81616 30.1211 3.73212 29.9904C3.65021 29.8598 3.5368 29.75 3.39398 29.6608C3.25116 29.572 3.0871 29.5008 2.90527 29.4469C2.7215 29.3935 2.5274 29.3551 2.32245 29.3328C2.11932 29.3093 1.9162 29.2988 1.71216 29.2988H1.2431V28.7108H1.70056C1.96277 28.7093 2.20746 28.6809 2.43182 28.6246C2.65869 28.5681 2.8562 28.4894 3.02429 28.3885C3.19427 28.2874 3.32709 28.1716 3.42114 28.0382C3.51709 27.9044 3.56396 27.7606 3.56616 27.6061C3.56396 27.401 3.50336 27.2276 3.38586 27.0849C3.26678 26.9437 3.10272 26.8367 2.88965 26.7627C2.67841 26.6898 2.43024 26.6525 2.14648 26.6525C1.94305 26.6542 1.74152 26.6722 1.54248 26.709C1.34497 26.7449 1.15717 26.7926 0.97937 26.8514ZM6.85046 28.6574V26.1269H11.496V32.1317H10.4638V26.7776H7.85919V28.5947C7.86139 28.8563 7.85541 29.119 7.84167 29.385C7.82977 29.6508 7.80261 29.9088 7.75952 30.1627C7.71857 30.4149 7.65417 30.653 7.56763 30.8772C7.48199 31.0998 7.3667 31.3001 7.22168 31.4783C7.07544 31.6551 6.89355 31.8021 6.67419 31.9179C6.57452 31.9667 6.46112 32.0114 6.33044 32.0543C6.19922 32.0975 6.05859 32.1331 5.91016 32.1602C5.75922 32.1882 5.60895 32.2017 5.45422 32.2029L5.3252 31.5795C5.48737 31.5586 5.64172 31.5187 5.79077 31.4591C5.93951 31.3979 6.06049 31.3315 6.15826 31.2586C6.31482 31.1399 6.43982 30.9852 6.53357 30.7925C6.62732 30.5996 6.69611 30.3841 6.74261 30.1449C6.78766 29.9061 6.81702 29.6596 6.83075 29.4042C6.84637 29.1489 6.85266 28.8992 6.85046 28.6574ZM18.1946 32.1317L17.3499 30.2431H14.5459L13.725 32.1317H12.6691L15.3674 26.1269H16.5874L19.2855 32.1317H18.1946ZM15.5315 27.9001L14.7571 29.6372H17.1505L16.364 27.9087C16.2783 27.7129 16.2024 27.5256 16.1377 27.3448C16.0734 27.1637 16.0106 26.9853 15.9537 26.813H15.9305C15.8737 26.9867 15.813 27.1663 15.7487 27.3491C15.6859 27.5332 15.6133 27.716 15.5315 27.9001ZM22.98 32.1317H21.9479V26.7864H19.5436V26.1269H25.3972V26.7864H22.98V32.1317ZM28.0049 26.2446C28.4487 26.096 28.9374 26.0215 29.4671 26.0204C30.0114 26.0215 30.5036 26.0972 30.9399 26.2446C31.3776 26.3915 31.7529 26.601 32.0639 26.8725C32.3763 27.1426 32.6154 27.4637 32.7814 27.8363C32.9476 28.2074 33.0317 28.6171 33.0336 29.067C33.0317 29.4785 32.9689 29.8523 32.8458 30.1864C32.7233 30.5208 32.547 30.8148 32.3217 31.0687C32.0973 31.3241 31.8314 31.5363 31.5261 31.7085C31.2214 31.8806 30.8848 32.0113 30.5192 32.0975C30.1536 32.1851 29.7668 32.2297 29.3618 32.2297C28.834 32.2283 28.3549 32.154 27.9208 32.0083C27.4871 31.8614 27.1118 31.6537 26.7968 31.3837C26.4818 31.1129 26.2397 30.7911 26.0675 30.418C25.8953 30.0438 25.8093 29.6297 25.8072 29.1743C25.8093 28.6958 25.9009 28.2639 26.0828 27.8764C26.2631 27.4903 26.5172 27.159 26.8459 26.8813C27.174 26.6053 27.559 26.3929 28.0049 26.2446ZM30.3477 26.7926C30.0774 26.7002 29.7724 26.6542 29.4321 26.6525C29.0918 26.6542 28.7871 26.6988 28.5156 26.7876C28.2437 26.8756 28.0049 26.9988 27.8015 27.1564C27.5984 27.3149 27.4283 27.4991 27.2931 27.7086C27.1568 27.9193 27.0546 28.1479 26.9887 28.3928C26.9199 28.6382 26.8865 28.8935 26.8865 29.1562C26.8865 29.4158 26.924 29.6657 26.9943 29.9061C27.0662 30.1465 27.1721 30.3691 27.3127 30.5742C27.4515 30.7776 27.6237 30.9572 27.8293 31.1103C28.0343 31.2629 28.269 31.3818 28.5349 31.4679C28.8011 31.5529 29.0958 31.5956 29.4205 31.5975C29.8252 31.5944 30.1852 31.5287 30.4996 31.3998C30.8146 31.269 31.0786 31.0894 31.2958 30.8606C31.5104 30.6319 31.6745 30.368 31.7864 30.068C31.8979 29.768 31.9545 29.4457 31.9545 29.1028C31.9545 28.8608 31.9211 28.6215 31.8567 28.3854C31.7905 28.1509 31.6907 27.9281 31.5576 27.7202C31.4248 27.5126 31.2567 27.3282 31.0552 27.168C30.8536 27.009 30.6192 26.883 30.3477 26.7926ZM36.1188 30.1895L33.491 26.1269H34.6526L36.2244 28.702C36.3238 28.88 36.4219 29.0565 36.5156 29.2305C36.6094 29.4054 36.6994 29.5796 36.7875 29.7531H36.8225C36.8928 29.6031 36.9675 29.4381 37.0453 29.2616C37.1238 29.0831 37.21 28.8873 37.3038 28.6752L38.5468 26.1269H39.6265L37.9609 29.2274C37.855 29.4296 37.7453 29.6342 37.6303 29.8435C37.5168 30.0514 37.3978 30.2564 37.2744 30.4569C37.1512 30.6572 37.0241 30.8457 36.891 31.0241C36.7603 31.2021 36.6232 31.3595 36.4822 31.499C36.2322 31.7444 35.9581 31.9283 35.6653 32.0529C35.3723 32.1763 35.0491 32.2385 34.6991 32.2385C34.566 32.2385 34.4526 32.234 34.3588 32.2252C34.2673 32.2164 34.1891 32.2029 34.1245 32.1851L34.2182 31.5529C34.2651 31.5614 34.3179 31.569 34.3807 31.5733C34.4435 31.5778 34.5179 31.5795 34.6054 31.5795C34.8066 31.5778 34.9904 31.5436 35.1529 31.4798C35.3151 31.4145 35.4597 31.3315 35.5869 31.2275C35.7141 31.1233 35.8235 31.0137 35.9175 30.8948C36.0113 30.7776 36.0897 30.6634 36.1541 30.5549C36.1951 30.4894 36.2103 30.4299 36.2028 30.3753C36.195 30.3203 36.1656 30.2595 36.1188 30.1895ZM45.3079 31.4532C45.4876 31.4159 45.6461 31.3713 45.7848 31.321L45.9845 31.9444C45.8614 31.9936 45.6989 32.0382 45.4957 32.0814C45.2926 32.1243 45.0536 32.1602 44.7842 32.1882C44.5142 32.2147 44.2186 32.2283 43.8964 32.2297C43.3348 32.2297 42.8189 32.1628 42.3474 32.032C41.8749 31.9001 41.4643 31.7055 41.1143 31.4475C40.7618 31.1902 40.4902 30.8725 40.2965 30.4937C40.103 30.1138 40.0052 29.6774 40.0012 29.1828C40.0037 28.7094 40.1031 28.2786 40.3024 27.8925C40.4999 27.5078 40.7815 27.1756 41.1471 26.8979C41.5127 26.6203 41.9468 26.4064 42.4511 26.2565C42.9561 26.1065 43.5152 26.0308 44.1305 26.0291C44.4554 26.0308 44.7426 26.0453 44.9914 26.0749C45.2379 26.1034 45.4467 26.1388 45.6166 26.1791C45.787 26.2206 45.9176 26.2591 46.0076 26.2961L45.7495 26.9288C45.5601 26.8564 45.3317 26.7968 45.0632 26.751C44.7954 26.7045 44.4967 26.681 44.1664 26.6796C43.7004 26.6796 43.2802 26.7344 42.9014 26.8441C42.5236 26.9542 42.1989 27.1144 41.9271 27.3268C41.6577 27.5375 41.448 27.7976 41.3018 28.1033C41.1568 28.4108 41.0824 28.7609 41.0808 29.1562C41.0824 29.652 41.2024 30.0796 41.4406 30.4391C41.679 30.7999 42.0233 31.0775 42.473 31.2733C42.9227 31.4693 43.468 31.5676 44.1077 31.5702C44.3204 31.5702 44.528 31.5602 44.7329 31.5391C44.9367 31.5187 45.1279 31.4902 45.3079 31.4532ZM49.8081 32.1317H48.7756V26.7864H46.3713V26.1269H52.2253V26.7864H49.8081V32.1317ZM54.8327 26.2446C55.2767 26.096 55.7654 26.0215 56.2952 26.0204C56.8392 26.0215 57.3317 26.0972 57.7679 26.2446C58.2054 26.3915 58.5811 26.601 58.892 26.8725C59.2045 27.1426 59.4435 27.4637 59.6091 27.8363C59.7757 28.2074 59.8597 28.6171 59.8613 29.067C59.8597 29.4785 59.7969 29.8523 59.6738 30.1864C59.551 30.5208 59.3751 30.8148 59.1498 31.0687C58.9254 31.3241 58.6592 31.5363 58.3542 31.7085C58.0495 31.8806 57.7126 32.0113 57.347 32.0975C56.9814 32.1851 56.5945 32.2297 56.1898 32.2297C55.6617 32.2283 55.1827 32.154 54.7487 32.0083C54.3152 31.8614 53.9399 31.6537 53.6249 31.3837C53.3099 31.1129 53.0674 30.7911 52.8953 30.418C52.723 30.0438 52.6374 29.6297 52.6353 29.1743C52.6374 28.6958 52.729 28.2639 52.9108 27.8764C53.0912 27.4903 53.3449 27.159 53.6736 26.8813C54.0021 26.6053 54.3871 26.3929 54.8327 26.2446ZM57.1754 26.7926C56.9055 26.7002 56.6005 26.6542 56.2601 26.6525C55.9199 26.6542 55.6152 26.6988 55.3436 26.7876C55.0718 26.8756 54.8327 26.9988 54.6296 27.1564C54.4261 27.3149 54.2565 27.4991 54.1212 27.7086C53.9846 27.9193 53.8828 28.1479 53.8165 28.3928C53.748 28.6382 53.7146 28.8935 53.7146 29.1562C53.7146 29.4158 53.7521 29.6657 53.8224 29.9061C53.8943 30.1465 54.0002 30.3691 54.1408 30.5742C54.2796 30.7776 54.4518 30.9572 54.657 31.1103C54.8621 31.2629 55.097 31.3818 55.363 31.4679C55.6289 31.5529 55.924 31.5956 56.2486 31.5975C56.6533 31.5944 57.0132 31.5287 57.3276 31.3998C57.6426 31.269 57.9067 31.0894 58.1238 30.8606C58.3386 30.6319 58.5026 30.368 58.6145 30.068C58.726 29.768 58.7826 29.4457 58.7826 29.1028C58.7826 28.8608 58.7491 28.6215 58.6844 28.3854C58.6185 28.1509 58.5189 27.9281 58.3857 27.7202C58.2529 27.5126 58.0848 27.3282 57.8832 27.168C57.6817 27.009 57.4473 26.883 57.1754 26.7926ZM61.8419 32.1628C61.5759 32.1478 61.3572 32.1317 61.1869 32.1136V26.2161C61.3375 26.1896 61.5116 26.1658 61.7131 26.1461C61.9122 26.1257 62.1253 26.1108 62.3544 26.0989C62.5831 26.0885 62.8156 26.0823 63.0522 26.0823C63.3909 26.0823 63.6937 26.0972 63.9597 26.1288C64.2234 26.1599 64.46 26.2073 64.6656 26.2712C64.8705 26.335 65.0524 26.4181 65.2109 26.5192C65.418 26.635 65.5806 26.7819 65.6996 26.9587C65.8171 27.1352 65.8774 27.3429 65.8793 27.579C65.8774 27.7767 65.8227 27.9609 65.7152 28.1332C65.6074 28.3054 65.4531 28.4566 65.254 28.5874C65.0543 28.7181 64.8181 28.8221 64.5424 28.8978V28.9246C64.7318 28.9574 64.9234 29.0119 65.113 29.0893C65.3046 29.1667 65.4787 29.2659 65.6393 29.3893C65.7993 29.5108 65.9265 29.6596 66.0243 29.83C66.1199 30.0011 66.1705 30.1985 66.173 30.4211C66.1705 30.6795 66.1083 30.9095 65.9868 31.1103C65.8661 31.3106 65.6996 31.4814 65.4924 31.6241C65.2246 31.8156 64.8646 31.9563 64.4134 32.0486C63.9637 32.1405 63.4163 32.1851 62.7706 32.1851C62.4191 32.1837 62.1081 32.1763 61.8419 32.1628ZM62.5438 26.6957C62.3994 26.7064 62.2878 26.718 62.2075 26.733V28.6752H63.1346C63.4921 28.6735 63.7975 28.6289 64.0496 28.5397C64.3034 28.4523 64.4974 28.332 64.6321 28.1806C64.7668 28.0278 64.8353 27.8541 64.8353 27.6595C64.8337 27.4279 64.7612 27.2406 64.6184 27.0968C64.4756 26.9511 64.2747 26.8457 64.0162 26.779C63.7599 26.7121 63.4572 26.6779 63.1109 26.6796C62.8784 26.6796 62.6884 26.6853 62.5438 26.6957ZM63.0522 29.2542H62.2075V31.5436C62.3131 31.5571 62.4362 31.5659 62.579 31.5721C62.72 31.5764 62.8825 31.5795 63.0637 31.5795C63.3297 31.5809 63.5844 31.5602 63.8265 31.5199C64.069 31.4798 64.2837 31.4145 64.4756 31.3241C64.6656 31.2337 64.8159 31.1129 64.9252 30.9629C65.0346 30.8134 65.0915 30.6288 65.0934 30.4123C65.0915 30.2104 65.0368 30.035 64.9315 29.8895C64.8256 29.7426 64.6787 29.6223 64.4912 29.5288C64.3034 29.4353 64.0869 29.3658 63.8422 29.3212C63.5959 29.2765 63.3337 29.2542 63.0522 29.2542ZM72.3826 31.4532C72.562 31.4159 72.7204 31.3713 72.8591 31.321L73.0588 31.9444C72.9357 31.9936 72.7735 32.0382 72.5701 32.0814C72.3669 32.1243 72.1279 32.1602 71.8585 32.1882C71.5885 32.2147 71.2932 32.2283 70.9707 32.2297C70.4092 32.2297 69.8936 32.1628 69.422 32.032C68.9492 31.9001 68.5386 31.7055 68.1886 31.4475C67.8361 31.1902 67.5646 30.8725 67.3712 30.4937C67.1777 30.1138 67.0796 29.6774 67.0758 29.1828C67.078 28.7094 67.1777 28.2786 67.3768 27.8925C67.5742 27.5078 67.8558 27.1756 68.2214 26.8979C68.587 26.6203 69.0211 26.4064 69.5255 26.2565C70.0304 26.1065 70.5895 26.0308 71.2051 26.0291C71.5298 26.0308 71.817 26.0453 72.0657 26.0749C72.3123 26.1034 72.5213 26.1388 72.691 26.1791C72.8616 26.2206 72.9922 26.2591 73.0819 26.2961L72.8241 26.9288C72.6348 26.8564 72.406 26.7968 72.1379 26.751C71.8701 26.7045 71.5714 26.681 71.2407 26.6796C70.7748 26.6796 70.3545 26.7344 69.9757 26.8441C69.598 26.9542 69.2733 27.1144 69.0017 27.3268C68.732 27.5375 68.5226 27.7976 68.3764 28.1033C68.2311 28.4108 68.157 28.7609 68.1552 29.1562C68.157 29.652 68.2767 30.0796 68.5152 30.4391C68.7533 30.7999 69.0977 31.0775 69.5473 31.2733C69.997 31.4693 70.5423 31.5676 71.1819 31.5702C71.3951 31.5702 71.6023 31.5602 71.8073 31.5391C72.011 31.5187 72.2023 31.4902 72.3826 31.4532ZM74.3488 32.1317V26.1269H75.3694V28.7907H75.6862L78.3962 26.1269H79.6161L76.6246 28.88C76.9512 28.9139 77.2327 28.9747 77.4693 29.0639C77.7059 29.1531 77.9074 29.2659 78.0756 29.4011C78.2452 29.5362 78.3906 29.6906 78.5115 29.8646C78.6346 30.0381 78.744 30.2265 78.8418 30.4299C78.9077 30.5654 78.972 30.6977 79.034 30.8275C79.0658 30.8941 79.097 30.9601 79.1274 31.0255C79.2174 31.2187 79.3071 31.4055 79.4008 31.5899C79.4949 31.7724 79.5983 31.9537 79.7102 32.1317H78.619C78.5211 31.9936 78.4315 31.8452 78.349 31.6879C78.2671 31.5287 78.189 31.367 78.1146 31.2007C78.0405 31.036 77.9662 30.8741 77.8918 30.7149C77.8021 30.516 77.7003 30.335 77.5828 30.1719C77.4675 30.0084 77.3265 29.8672 77.1606 29.75C76.9943 29.6311 76.7909 29.5407 76.5543 29.4754C76.3159 29.4116 76.0303 29.3788 75.6981 29.3788H75.3694V32.1317H74.3488ZM80.7067 32.1317V26.1269H81.6689V28.6574C81.6689 28.9704 81.667 29.2704 81.6614 29.5573C81.6533 29.8435 81.6436 30.1211 81.6295 30.3914C81.6164 30.6617 81.5986 30.9306 81.5748 31.1964L81.6102 31.2052C81.8042 30.8948 82.0229 30.5742 82.267 30.2457C82.5117 29.9161 82.7776 29.5734 83.0651 29.2184L85.6226 26.1269H86.6428V32.1317H85.6807V29.5746C85.6807 29.2523 85.6829 28.9543 85.687 28.6778C85.6929 28.4032 85.7004 28.1391 85.7141 27.8864C85.7278 27.6355 85.7476 27.3849 85.7744 27.1341L85.7394 27.1248C85.5441 27.4563 85.3175 27.7917 85.0629 28.1317C84.8091 28.4716 84.5469 28.8074 84.2729 29.1382L81.7977 32.1317H80.7067ZM89.4468 28.6752H92.5086V29.3166H89.4468V31.4814H92.8724V32.1317H88.4143V26.1269H92.6964V26.7776H89.4468V28.6752ZM158.84 32.1317V26.1269H159.872V28.6393H163.697V26.1269H164.729V32.1317H163.697V29.3166H159.872V32.1317H158.84ZM168.228 26.2446C168.672 26.096 169.161 26.0215 169.691 26.0204C170.235 26.0215 170.727 26.0972 171.164 26.2446C171.601 26.3915 171.976 26.601 172.287 26.8725C172.6 27.1426 172.839 27.4637 173.005 27.8363C173.171 28.2074 173.255 28.6171 173.257 29.067C173.255 29.4785 173.192 29.8523 173.069 30.1864C172.947 30.5208 172.77 30.8148 172.545 31.0687C172.321 31.3241 172.055 31.5363 171.749 31.7085C171.445 31.8806 171.108 32.0113 170.743 32.0975C170.377 32.1851 169.99 32.2297 169.585 32.2297C169.057 32.2283 168.578 32.154 168.144 32.0083C167.711 31.8614 167.335 31.6537 167.02 31.3837C166.705 31.1129 166.463 30.7911 166.291 30.418C166.119 30.0438 166.033 29.6297 166.031 29.1743C166.033 28.6958 166.124 28.2639 166.306 27.8764C166.486 27.4903 166.74 27.159 167.069 26.8813C167.397 26.6053 167.783 26.3929 168.228 26.2446ZM170.571 26.7926C170.301 26.7002 169.996 26.6542 169.655 26.6525C169.315 26.6542 169.011 26.6988 168.739 26.7876C168.467 26.8756 168.228 26.9988 168.025 27.1564C167.822 27.3149 167.652 27.4991 167.516 27.7086C167.38 27.9193 167.278 28.1479 167.212 28.3928C167.143 28.6382 167.11 28.8935 167.11 29.1562C167.11 29.4158 167.147 29.6657 167.218 29.9061C167.29 30.1465 167.396 30.3691 167.536 30.5742C167.675 30.7776 167.847 30.9572 168.053 31.1103C168.258 31.2629 168.492 31.3818 168.759 31.4679C169.024 31.5529 169.319 31.5956 169.644 31.5975C170.049 31.5944 170.409 31.5287 170.723 31.3998C171.038 31.269 171.302 31.0894 171.519 30.8606C171.734 30.6319 171.898 30.368 172.01 30.068C172.121 29.768 172.178 29.4457 172.178 29.1028C172.178 28.8608 172.144 28.6215 172.08 28.3854C172.014 28.1509 171.914 27.9281 171.781 27.7202C171.648 27.5126 171.48 27.3282 171.279 27.168C171.077 27.009 170.843 26.883 170.571 26.7926ZM176.741 28.889L173.949 26.1269H175.134L177.585 28.7907H177.903V26.1269H178.888V28.7907H179.205L181.657 26.1269H182.841L180.038 28.889C180.346 28.9108 180.615 28.9647 180.841 29.0461C181.068 29.1297 181.263 29.2381 181.427 29.3715C181.592 29.5065 181.734 29.6627 181.856 29.8404C181.977 30.0189 182.087 30.2149 182.184 30.4299C182.269 30.6202 182.35 30.8103 182.427 31.0018C182.503 31.1933 182.585 31.3837 182.669 31.5721C182.753 31.7605 182.851 31.9475 182.958 32.1317H181.914C181.825 31.9966 181.742 31.8467 181.668 31.6831C181.595 31.5199 181.525 31.3564 181.461 31.1903C181.395 31.0241 181.332 30.868 181.269 30.7242C181.178 30.5177 181.077 30.3338 180.972 30.1672C180.864 30.0022 180.738 29.8615 180.589 29.7443C180.44 29.6268 180.256 29.5362 180.039 29.4737C179.82 29.4116 179.555 29.3788 179.24 29.3788H178.888V32.1317H177.903V29.3788H177.539C177.224 29.3788 176.958 29.4116 176.741 29.4737C176.522 29.5362 176.338 29.6268 176.19 29.7443C176.041 29.8615 175.914 30.0022 175.806 30.1672C175.701 30.3338 175.601 30.5177 175.509 30.7242C175.443 30.868 175.378 31.0241 175.312 31.1903C175.246 31.3564 175.175 31.5199 175.103 31.6831C175.028 31.8467 174.95 31.9966 174.864 32.1317H173.82C173.932 31.9475 174.033 31.7605 174.121 31.5721C174.209 31.3837 174.293 31.1947 174.372 31.0049C174.452 30.8148 174.534 30.6261 174.618 30.4391C174.715 30.2253 174.825 30.0293 174.944 29.8523C175.065 29.6757 175.206 29.52 175.367 29.3862C175.529 29.2523 175.722 29.1444 175.945 29.0596C176.17 28.9747 176.434 28.9184 176.741 28.889ZM183.979 32.1317V26.1269H184.941V28.6574C184.941 28.9704 184.939 29.2704 184.933 29.5573C184.925 29.8435 184.915 30.1211 184.902 30.3914C184.888 30.6617 184.87 30.9306 184.847 31.1964L184.882 31.2052C185.076 30.8948 185.295 30.5742 185.539 30.2457C185.783 29.9161 186.05 29.5734 186.337 29.2184L188.894 26.1269H189.915V32.1317H188.952V29.5746C188.952 29.2523 188.955 28.9543 188.959 28.6778C188.965 28.4032 188.972 28.1391 188.986 27.8864C189 27.6355 189.019 27.3849 189.047 27.1341L189.011 27.1248C188.816 27.4563 188.589 27.7917 188.335 28.1317C188.081 28.4716 187.819 28.8074 187.545 29.1382L185.07 32.1317H183.979Z" fill="white"/>
</svg>
